<?xml version="1.0" encoding="UTF-8" standalone="no"?><svg xmlns="http://www.w3.org/2000/svg" viewBox="0 0 64 64"><defs>
<style>.cls-1{fill:#50D890;}.cls-1,.cls-3,.cls-5,.cls-8{stroke:#54596e;}.cls-1,.cls-3,.cls-4,.cls-5,.cls-8{stroke-linecap:round;stroke-linejoin:round;stroke-width:2px;}.cls-2,.cls-5,.cls-7{fill:#54596e;}.cls-2{opacity:0.2;}.cls-3{fill:#d8d8d8;}.cls-4{fill:#aff05d;stroke:#55596c;}.cls-6{fill:#ff927d;}.cls-8{fill:none;}</style></defs><title>scale</title><g id="scale"><rect class="cls-1" x="7" y="7" width="50" height="51" rx="4.02" ry="4.02"/><path class="cls-2" d="M53,53H11c-2.22,0-4-2.8-4-5v6a4,4,0,0,0,4,4H53a4,4,0,0,0,4-4V48C57,50.2,55.2,53,53,53Z"/><circle class="cls-3" cx="32" cy="20.5" r="10.5"/><path class="cls-4" d="M24,27.32a10.48,10.48,0,0,0,16.45-.64A10.48,10.48,0,0,0,24,27.32Z"/><path class="cls-5" d="M27,42a5,5,0,0,0,10,0Z"/><ellipse class="cls-6" cx="32" cy="45" rx="2" ry="1"/><circle class="cls-7" cx="16.5" cy="35.5" r="1.5"/><circle class="cls-7" cx="47.5" cy="35.5" r="1.5"/><line class="cls-8" x1="32" y1="14" x2="32" y2="23"/></g></svg>